<svg xmlns="http://www.w3.org/2000/svg" viewBox="0 0 160 200" fill="none" aria-hidden="true">
  <ellipse cx="80" cy="188" rx="42" ry="8" fill="#0b1220" opacity=".08"/>
  <path d="M52 96h56c4 0 8 4 8 9v52H44v-52c0-5 4-9 8-9z" fill="#0b5ed7"/>
  <path d="M48 108h64v10H48z" fill="#f5c542"/>
  <circle cx="80" cy="58" r="28" fill="#f0c7a0"/>
  <path d="M52 58c0-18 12-30 28-30s28 12 28 30" fill="#1e293b"/>
  <path d="M48 58h64v8H48z" fill="#f5c542"/>
  <rect x="70" y="50" width="20" height="6" rx="1" fill="#fff" opacity=".85"/>
  <circle cx="70" cy="62" r="3" fill="#0b1220"/>
  <circle cx="90" cy="62" r="3" fill="#0b1220"/>
  <path d="M72 72c4 4 12 4 16 0" stroke="#0b1220" stroke-width="2" stroke-linecap="round"/>
  <path d="M44 110c-4 12-2 26 4 36h14v-36H44z" fill="#0b5ed7"/>
  <path d="M116 110c10 4 18 16 18 28v20h-18V110z" fill="#0b5ed7"/>
  <path d="M52 157h24v36H52z" fill="#1e293b"/>
  <path d="M84 157h24v36H84z" fill="#1e293b"/>
  <!-- Clipboard -->
  <rect x="20" y="112" width="36" height="48" rx="3" fill="#e2e8f0"/>
  <rect x="28" y="106" width="20" height="10" rx="2" fill="#0b5ed7"/>
  <path d="M28 128h20M28 136h16M28 144h18" stroke="#64748b" stroke-width="2" stroke-linecap="round"/>
</svg>
